Fly_normalized_Motion_pl06
version=1
nRows=18
nColumns=43
inDegrees=yes
endheader
time		pelvis_tilt		pelvis_list		pelvis_rotation		pelvis_tx		pelvis_ty		pelvis_tz		hip_flexion_r		hip_adduction_r		hip_rotation_r		knee_angle_r		ankle_angle_r		subtalar_angle_r		mtp_angle_r		hip_flexion_l		hip_adduction_l		hip_rotation_l		knee_angle_l		ankle_angle_l		subtalar_angle_l		mtp_angle_l		lumbar_extension		lumbar_bending		lumbar_rotation		neck_flexion		neck_lateral_bending		neck_rotation		arm_flex_r		arm_add_r		arm_rot_r		elbow_flex_r		pro_sup_r		wrist_flex_r		wrist_dev_r		hand_finger_flex_r		arm_flex_l		arm_add_l		arm_rot_l		elbow_flex_l		pro_sup_l		wrist_flex_l		wrist_dev_l		hand_finger_flex_l		
0.362500		-2.274034		-17.524050		85.643939		0.060556		1.794734		1.551433		49.789845		-2.414870		5.357652		-132.665595		11.986590		-0.511679		24.578453		74.807064		-2.991929		1.612026		-123.407278		-10.015269		6.844443		33.434337		-33.266241		-4.161916		4.121393		28.340170		2.393827		-5.199876		100.168219		-21.390928		19.394692		63.039682		116.391593		-1.892116		-10.912493		6.151550		101.603987		-11.063614		23.723786		47.269757		114.721405		-11.092547		-0.075644		4.776470		
0.366717		-2.378276		-17.135064		85.865950		0.060117		1.795385		1.542173		48.610754		-2.607983		5.347624		-132.067581		10.561905		-1.104451		24.678165		74.685560		-2.922028		1.086496		-122.102895		-9.936924		5.201246		32.774380		-33.381773		-4.207430		4.018762		27.855210		2.452158		-5.367509		99.854760		-21.450357		19.271857		62.676545		117.155808		-1.423344		-10.865193		5.835061		101.309304		-11.021167		24.036862		47.169978		115.036632		-10.877174		0.009458		4.392548		
0.370934		-2.439665		-16.693701		86.051488		0.059872		1.796078		1.532828		47.454871		-2.678859		5.292696		-131.452486		8.939301		-1.810771		24.717424		74.499256		-2.953213		0.586488		-120.823329		-9.745716		3.553470		31.643554		-33.551545		-4.268299		3.980357		27.296462		2.581352		-5.518165		99.420398		-21.556870		19.068244		62.334389		117.876206		-0.962117		-10.991361		5.301694		100.942784		-10.972386		24.310441		47.123651		115.454065		-10.629051		0.093519		3.958484		
0.375152		-2.394628		-16.455498		86.203816		0.059817		1.796113		1.523630		46.637512		-2.533031		5.275694		-130.885508		7.213213		-1.786039		24.502060		74.581155		-3.105473		0.331386		-119.647243		-9.338933		2.823114		31.268393		-33.459276		-4.260893		4.062727		26.560477		2.728902		-5.689112		98.894837		-21.728684		19.038446		61.979876		117.998920		-0.890089		-10.975581		5.122301		100.474155		-10.931776		24.600214		47.065292		115.627645		-10.499740		0.168018		3.889717		
0.379369		-2.436396		-16.018076		86.303333		0.059878		1.796588		1.514404		45.690337		-2.416086		5.205970		-130.263939		5.209462		-2.658786		24.146170		74.413536		-3.225083		-0.118399		-118.408106		-9.119452		1.329186		30.131243		-33.646712		-4.381765		4.101858		26.037989		2.921617		-5.856608		98.384949		-21.907651		18.929050		61.611878		118.233285		-0.771301		-11.125763		4.649207		100.078003		-10.870416		24.882074		46.980706		116.005744		-10.417211		0.265205		3.668487		
0.383586		-2.455742		-15.731880		86.366823		0.059917		1.796498		1.505276		45.019924		-2.231185		5.260879		-129.653692		3.000533		-2.816242		23.696912		74.434340		-3.361514		-0.408710		-117.222654		-8.772807		0.601638		29.727986		-33.631953		-4.478945		4.202695		25.337078		3.082735		-6.046020		97.808612		-22.112864		18.891875		61.278099		118.310956		-0.799068		-11.095153		4.481356		99.564471		-10.838762		25.157163		46.934429		116.144424		-10.365879		0.348742		3.636449		
0.387803		-2.687166		-15.328779		86.263041		0.060050		1.796677		1.496316		44.395973		-2.163903		5.364773		-129.017066		0.235858		-4.509567		22.627530		74.263252		-3.469894		-1.008968		-115.930907		-8.583985		-0.747881		28.694790		-33.819557		-4.849877		4.251976		25.049188		3.275974		-6.271172		97.323282		-22.280096		18.802605		60.889803		118.621017		-0.881750		-11.115507		4.161779		99.214944		-10.755449		25.459424		46.757182		116.409668		-10.420203		0.529814		3.533207		
0.392020		-2.942559		-14.990202		86.150161		0.060065		1.796562		1.487300		43.886368		-2.175861		5.465806		-128.336129		-2.485580		-6.282485		20.777434		74.157456		-3.527824		-1.514060		-114.633503		-8.367815		-1.557919		27.313633		-33.916947		-5.225862		4.322103		24.481484		3.425236		-6.464717		96.718975		-22.578275		18.697669		60.732770		119.230861		-0.833363		-11.123520		4.027818		98.691070		-10.779203		25.776557		46.824748		116.604968		-10.357937		0.636409		3.521236		
0.396237		-3.224696		-14.691255		86.019486		0.059895		1.796185		1.478374		43.528783		-2.230997		5.619328		-127.604256		-5.567375		-8.268004		17.858121		74.095756		-3.551966		-2.014168		-113.345623		-8.068536		-2.150126		25.743939		-33.984511		-5.599512		4.366544		24.021946		3.511464		-6.670712		96.118494		-22.805520		18.541483		60.550466		120.085886		-0.804552		-11.134602		4.165773		98.132636		-10.837598		26.007791		46.910001		116.807804		-10.196881		0.767174		3.582474		
0.400455		-3.529541		-14.415233		85.878800		0.059574		1.795621		1.469546		43.290087		-2.332528		5.833352		-126.809289		-8.968125		-10.305201		14.690238		74.047304		-3.547618		-2.523575		-112.038387		-7.834756		-2.689969		24.608564		-34.047838		-5.972564		4.397436		23.614476		3.567374		-6.854659		95.542555		-23.021836		18.429848		60.336996		120.837127		-0.869571		-11.132820		4.533967		97.540318		-10.932048		26.173435		47.042598		117.039201		-9.909018		0.882024		3.721938		
0.404672		-3.713056		-14.153665		85.833881		0.058956		1.794769		1.460653		43.060776		-2.428391		6.103605		-125.910871		-12.239773		-11.121673		12.535996		74.050562		-3.487146		-2.847330		-110.788115		-7.658726		-3.051925		24.065259		-34.084939		-6.172213		4.452265		23.088048		3.616833		-7.007024		94.949567		-23.304376		18.450446		60.126917		121.218000		-0.878741		-11.104352		4.828429		96.849186		-11.076093		26.355469		47.243276		117.190982		-9.617464		0.898624		3.868591		
0.408889		-3.855428		-13.890999		85.816417		0.058513		1.793931		1.451925		42.943108		-2.430999		6.155553		-124.951034		-15.292015		-12.797305		4.295443		74.032661		-3.422489		-3.115920		-109.507013		-7.432785		-3.537989		22.112601		-34.193650		-6.333381		4.472699		22.815552		3.609016		-7.128696		94.341943		-23.451073		18.253569		59.910102		121.987216		-1.087255		-11.189974		5.954087		96.135834		-11.198379		26.163621		47.488883		117.823376		-9.057267		0.950102		4.152170		
0.413106		-4.295709		-13.610826		85.500135		0.058170		1.792962		1.443364		42.990252		-2.541896		6.818495		-123.939789		-18.964623		-13.666064		2.925082		73.901871		-3.417298		-3.737748		-108.135335		-7.425164		-4.255563		21.954541		-34.317473		-6.859224		4.432604		22.531365		3.572839		-7.152262		93.858012		-23.616024		18.461152		59.608567		121.832774		-1.072203		-10.909550		5.981494		95.451457		-11.557834		26.257628		47.818268		117.706689		-8.586405		0.911127		4.386023		
0.417323		-4.322335		-13.352292		85.517865		0.057773		1.791775		1.434650		42.931097		-2.411780		7.128097		-122.811461		-21.655398		-12.798359		2.257758		73.880972		-3.352433		-3.760768		-106.881110		-7.387518		-4.550675		21.873458		-34.426062		-6.921589		4.471608		22.137243		3.636907		-7.232468		93.237416		-23.925375		18.603063		59.467925		121.788664		-0.947951		-10.765158		6.068581		94.699059		-11.866514		26.405390		48.126741		117.693458		-8.345117		0.813887		4.508525		
0.421540		-4.350856		-13.094898		85.441926		0.057687		1.790575		1.426137		42.960230		-2.137855		7.447469		-121.659936		-23.769751		-11.812328		1.783591		73.824060		-3.374203		-3.770668		-105.588569		-7.403434		-4.935733		21.760007		-34.588228		-7.030701		4.538723		21.926267		3.628077		-7.248469		92.676589		-24.179695		18.738804		59.355672		121.720018		-0.779810		-10.512897		6.201494		93.952564		-12.252765		26.448816		48.480641		117.676645		-8.024992		0.750168		4.666459		
0.425758		-4.273911		-12.826172		85.335039		0.057706		1.789368		1.417759		43.021037		-1.699781		7.787972		-120.518877		-25.008946		-9.922972		1.819406		73.739714		-3.482194		-3.671182		-104.295697		-7.427289		-5.410662		21.563241		-34.810558		-7.060401		4.677066		21.972599		3.544992		-7.216147		92.153093		-24.365793		18.811201		59.254051		121.569824		-0.548157		-10.059520		6.442338		93.179046		-12.656624		26.302556		48.895446		117.735199		-7.539474		0.820278		4.867211		
0.429975		-4.065386		-12.558285		85.309335		0.057801		1.788162		1.409369		43.011692		-1.165942		7.981669		-119.396250		-24.953576		-7.265754		2.978095		73.624340		-3.603140		-3.388487		-102.982362		-7.405572		-5.720914		21.284334		-35.076574		-6.960244		4.863657		21.941440		3.493279		-7.201160		91.554273		-24.627399		18.793823		59.300258		121.380828		-0.339079		-9.715643		6.763129		92.309823		-13.052372		26.020759		49.464902		117.983151		-6.998746		0.912216		5.000610		
0.434192		-3.950375		-12.296460		85.300950		0.057585		1.786903		1.400983		43.005021		-0.815991		8.120281		-118.254624		-25.006959		-5.177630		9.440558		73.466539		-3.586632		-3.153266		-101.621739		-7.300952		-5.857945		20.531084		-35.350558		-6.886869		4.948145		21.931239		3.393705		-7.178650		90.950413		-24.849955		18.731958		59.247735		121.658418		-0.264745		-9.768845		7.390019		91.291187		-13.399879		25.338340		50.072037		118.809075		-6.052915		0.968839		4.647191		
